<?xml version="1.0" standalone="no"?>
<!DOCTYPE svg PUBLIC "-//W3C//DTD SVG 20010904//EN"
 "http://www.w3.org/TR/2001/REC-SVG-20010904/DTD/svg10.dtd">
<svg version="1.0" xmlns="http://www.w3.org/2000/svg"
 width="300.000000pt" height="81.000000pt" viewBox="0 0 300.000000 81.000000"
 preserveAspectRatio="xMidYMid meet">
<metadata>
Created by potrace 1.10, written by Peter Selinger 2001-2011
</metadata>
<g transform="translate(0.000000,81.000000) scale(0.100000,-0.100000)"
fill="#000000" stroke="none">
<path d="M0 800 c0 -5 18 -14 40 -20 l40 -11 0 -215 0 -214 -40 6 c-38 6 -40
5 -40 -20 0 -24 4 -26 39 -26 22 0 42 4 45 9 3 4 6 108 6 230 1 121 2 221 3
221 1 0 63 -20 137 -45 l135 -44 5 -195 5 -195 57 -51 c31 -27 59 -50 62 -50
3 0 6 11 6 25 0 14 4 25 8 25 5 0 9 7 9 16 0 15 -2 14 -14 -1 -12 -18 -14 -18
-35 1 -12 10 -18 13 -14 7 4 -7 3 -13 -3 -13 -17 0 -39 53 -37 87 1 18 -1 30
-5 27 -17 -10 -19 19 -3 32 15 11 16 13 3 8 -27 -9 -32 15 -6 27 22 10 25 19
32 92 6 68 4 82 -9 89 -9 5 -17 17 -18 26 -1 9 -5 -32 -8 -93 l-6 -110 -2 116
c-1 83 -6 121 -17 135 -8 10 -15 29 -15 40 0 18 -15 27 -88 53 -106 38 -122
39 -96 9 19 -21 19 -21 -1 -14 -11 4 -33 10 -50 13 -16 4 -36 12 -43 20 -15
15 -82 18 -82 3z"/>
<path d="M360 780 c0 -21 4 -30 13 -27 6 2 12 14 12 27 0 13 -6 25 -12 28 -9
2 -13 -7 -13 -28z"/>
<path d="M1022 794 c2 -10 13 -19 26 -20 30 -5 28 10 -4 25 -22 10 -25 9 -22
-5z"/>
<path d="M1136 797 c-15 -11 -17 -18 -8 -33 11 -18 11 -18 12 4 0 22 2 22 125
22 77 0 125 4 125 10 0 16 -232 13 -254 -3z"/>
<path d="M2247 783 c-3 -16 -3 -40 0 -54 3 -15 0 -30 -6 -33 -6 -4 -11 -3 -11
2 0 6 -39 8 -100 5 -88 -5 -100 -4 -100 11 0 9 -4 16 -10 16 -5 0 -10 -8 -10
-17 0 -16 -10 -18 -73 -18 -67 0 -72 2 -75 22 -3 17 3 24 23 29 14 3 34 4 45
1 11 -3 20 -1 20 4 0 12 -77 12 -100 -1 -12 -6 -16 -17 -13 -30 5 -19 1 -20
-141 -20 -80 0 -146 3 -146 6 0 3 4 13 9 22 8 16 -7 17 -195 19 l-204 2 0 -25
c0 -21 -5 -24 -34 -24 -19 0 -36 5 -38 12 -2 6 -19 13 -37 14 -20 1 -31 -2
-28 -9 4 -12 56 -28 100 -31 15 0 27 -4 27 -8 0 -4 -73 -9 -162 -11 -140 -2
-130 -3 70 -5 208 -2 232 0 218 13 -18 18 -43 19 -49 3 -4 -10 -8 -10 -15 1
-8 11 -10 11 -15 0 -3 -8 -6 -4 -6 9 -1 25 0 25 91 26 69 1 72 -1 71 -41 -1
-10 88 -13 411 -13 379 -1 461 -5 509 -25 15 -6 17 1 17 84 0 54 -4 91 -10 91
-6 0 -10 -32 -10 -75 0 -41 -4 -75 -9 -75 -6 0 -7 32 -4 75 6 75 0 100 -10 48z
m-852 -74 c-4 -6 3 -13 15 -16 14 -4 18 -8 10 -13 -7 -4 -21 -5 -31 -3 -15 4
-16 9 -8 24 5 10 12 19 15 19 3 0 2 -5 -1 -11z m112 -6 c-20 -2 -52 -2 -70 0
-17 2 0 4 38 4 39 0 53 -2 32 -4z"/>
<path d="M2510 590 c0 -140 -4 -220 -10 -220 -5 0 -10 -8 -10 -17 0 -15 2 -16
10 -3 11 18 12 13 15 -132 2 -93 1 -98 -19 -98 -17 0 -18 -2 -6 -10 13 -8 13
-10 -2 -10 -9 0 -19 4 -22 9 -8 12 -59 8 -64 -6 -3 -10 17 -13 77 -13 47 0 81
4 81 10 0 6 -7 10 -15 10 -10 0 -15 10 -15 30 0 17 4 30 8 30 5 0 5 33 0 73
-4 44 -3 87 3 110 7 27 7 48 -1 72 -7 21 -9 92 -7 196 3 90 3 169 0 176 -17
44 -23 -12 -23 -207z"/>
<path d="M2620 803 c-3 -358 -5 -400 -23 -417 -9 -10 -15 -22 -12 -27 4 -5 1
-9 -4 -9 -6 0 -11 -16 -11 -36 0 -22 4 -33 11 -29 6 4 8 10 5 13 -3 3 0 12 7
20 9 13 9 14 0 8 -7 -4 -13 -3 -13 3 0 15 23 26 28 13 4 -12 32 -5 32 9 0 5
-8 9 -17 9 -15 0 -16 2 -3 10 12 8 16 46 18 225 2 146 0 215 -7 215 -6 0 -11
-3 -11 -7z"/>
<path d="M2681 665 c1 -102 4 -145 12 -146 7 0 2 -4 -10 -9 -13 -5 -23 -15
-23 -22 0 -9 3 -10 8 -2 4 6 21 16 37 22 17 6 23 11 13 11 -16 1 -18 13 -18
107 0 73 3 103 11 98 6 -4 10 1 8 12 -1 11 2 27 6 38 5 12 3 21 -6 27 -37 23
-40 13 -38 -136z"/>
<path d="M2840 690 c0 -68 2 -121 4 -119 8 8 11 228 3 235 -4 4 -7 -48 -7
-116z"/>
<path d="M2874 764 c3 -26 7 -74 8 -108 1 -60 1 -59 7 19 7 91 3 135 -11 135
-7 0 -8 -17 -4 -46z"/>
<path d="M510 787 c0 -31 22 -36 62 -16 22 11 38 23 35 25 -3 3 -19 -2 -36
-10 -38 -20 -55 -20 -47 -1 3 8 1 15 -4 15 -6 0 -10 -6 -10 -13z"/>
<path d="M651 763 c0 -27 -6 -43 -13 -44 -27 -2 -73 -10 -77 -15 -2 -2 56 -4
130 -3 95 1 124 3 99 9 -19 5 -55 7 -80 4 -25 -2 -39 -2 -32 2 16 7 16 25 0
22 -7 -2 -15 12 -19 32 l-6 35 -2 -42z"/>
<path d="M106 653 c-8 -52 -8 -113 2 -113 4 0 8 34 9 75 0 41 0 75 -2 75 -1 0
-5 -17 -9 -37z"/>
<path d="M500 669 c0 -5 24 -9 54 -9 30 0 63 -3 73 -7 16 -6 16 -5 5 10 -10
11 -30 16 -73 16 -32 0 -59 -5 -59 -10z"/>
<path d="M651 667 c13 -14 89 -11 89 4 0 5 -23 9 -50 9 -41 0 -48 -3 -39 -13z"/>
<path d="M2945 659 c7 -37 27 -49 23 -15 -2 16 -8 31 -15 33 -8 3 -11 -4 -8
-18z"/>
<path d="M726 646 c-21 -10 -24 -14 -13 -19 8 -3 24 -3 35 0 13 3 28 -3 41
-16 12 -12 21 -18 21 -13 0 4 10 -4 23 -18 12 -14 18 -20 13 -13 -5 7 -5 13
-2 13 4 0 2 8 -3 18 -5 10 -28 24 -51 32 -27 9 -37 16 -28 22 19 12 -3 8 -36
-6z"/>
<path d="M1216 639 c3 -5 148 -9 334 -9 l329 0 4 -102 3 -103 2 102 2 102 153
4 c83 1 -30 4 -253 6 -223 2 -444 5 -493 7 -50 1 -85 -2 -81 -7z"/>
<path d="M899 493 c-1 -82 -5 -159 -9 -173 -4 -14 -9 -18 -9 -10 -1 13 -2 13
-11 0 -10 -16 -10 -15 -14 33 -1 6 4 12 11 12 6 0 15 3 19 8 4 4 -2 7 -13 7
-24 0 -40 -17 -43 -45 -4 -40 0 -45 35 -45 l35 0 0 -65 c0 -45 4 -65 13 -65 8
0 7 -4 -3 -10 -12 -8 -10 -10 8 -10 15 0 21 4 16 11 -4 7 -6 43 -5 80 1 43 -2
69 -8 69 -7 0 -11 58 -11 171 l0 170 135 -3 c74 -2 135 0 135 5 0 4 -63 7
-140 7 l-140 0 -1 -147z"/>
<path d="M460 526 c0 -52 4 -98 10 -101 6 -4 10 28 10 89 0 52 -4 98 -10 101
-6 4 -10 -28 -10 -89z"/>
<path d="M1963 555 c0 -38 2 -53 4 -32 2 20 2 52 0 70 -2 17 -4 1 -4 -38z"/>
<path d="M1190 594 c0 -12 16 -15 72 -15 l36 1 7 -76 c4 -42 5 -105 2 -140 -3
-46 -1 -64 7 -64 9 0 13 31 15 105 1 67 -2 105 -9 105 -5 0 -10 16 -10 35 0
26 3 33 15 29 12 -5 15 -32 17 -148 l2 -141 6 145 6 145 4 -145 5 -145 5 157
5 157 -93 3 c-61 2 -92 -1 -92 -8z"/>
<path d="M2174 581 c4 -5 3 -11 -1 -14 -5 -2 -2 -2 5 0 8 1 26 3 40 4 24 0 25
1 7 9 -27 12 -57 12 -51 1z"/>
<path d="M2305 559 c33 -16 64 -34 69 -39 6 -6 16 -5 28 1 10 5 24 7 31 3 9
-5 9 -3 -1 7 -9 10 -17 11 -29 3 -13 -8 -25 -5 -51 13 -19 13 -41 23 -48 23
-8 0 -14 5 -14 10 0 6 -10 10 -22 9 -16 0 -5 -9 37 -30z"/>
<path d="M923 495 c0 -38 2 -53 4 -32 2 20 2 52 0 70 -2 17 -4 1 -4 -38z"/>
<path d="M1477 533 c-4 -3 -7 -48 -7 -100 l0 -93 170 0 170 0 0 100 0 100
-163 0 c-90 0 -167 -3 -170 -7z m193 -23 c-39 -6 -34 -7 37 -8 57 -2 83 2 86
11 2 6 4 -26 4 -73 -1 -60 -2 -68 -4 -27 l-4 57 -144 0 -144 0 -4 -62 c-3 -54
-3 -51 -5 25 l-2 87 113 -2 c83 -1 100 -3 67 -8z m78 -73 c19 -15 15 -57 -5
-57 -10 0 -66 -3 -125 -6 l-108 -5 0 28 c0 16 5 34 10 39 13 13 211 14 228 1z
m-55 -84 c-35 -2 -91 -2 -125 0 -35 2 -7 3 62 3 69 0 97 -1 63 -3z"/>
<path d="M100 507 c0 -2 26 -26 57 -53 31 -27 54 -44 50 -37 -9 14 -107 97
-107 90z"/>
<path d="M1232 438 c-1 -48 -6 -67 -14 -65 -9 1 -12 -10 -10 -40 l4 -43 -61 0
c-58 0 -61 1 -61 25 0 20 5 25 25 25 17 0 23 4 19 15 -4 8 -10 13 -14 10 -5
-3 -11 3 -13 12 -4 14 -5 13 -6 -4 -1 -19 -7 -23 -31 -23 -23 0 -28 -3 -23
-17 4 -11 3 -14 -5 -9 -7 4 -12 2 -12 -3 0 -6 -8 -11 -18 -11 -26 0 -52 -36
-52 -71 0 -17 -5 -39 -10 -50 -8 -15 -8 -19 2 -17 7 2 12 -3 10 -9 -1 -7 2
-13 8 -13 6 0 10 28 10 65 0 51 3 65 15 65 8 0 15 4 15 8 0 5 15 6 33 4 17 -2
86 -5 152 -7 66 -1 101 0 78 2 -24 2 -43 6 -43 9 0 16 23 44 35 44 9 0 12 6 9
15 -5 12 -10 13 -20 4 -11 -9 -14 4 -17 68 l-3 78 -2 -67z"/>
<path d="M2130 475 c-23 -13 -19 -14 55 -13 71 2 74 2 20 5 -41 3 -55 7 -45
13 24 15 -3 11 -30 -5z"/>
<path d="M2685 470 c-11 -12 -15 -26 -10 -37 6 -17 7 -17 21 1 12 18 20 56 11
56 -2 0 -12 -9 -22 -20z"/>
<path d="M1040 432 c0 -12 68 -13 75 -2 4 6 -11 10 -34 10 -23 0 -41 -4 -41
-8z"/>
<path d="M2270 393 c-1 -44 -2 -46 -15 -29 -8 10 -12 22 -10 26 2 4 -2 7 -9 7
-8 0 -11 -9 -8 -24 2 -12 8 -21 12 -18 9 6 50 -46 50 -63 0 -5 11 -7 25 -4 31
6 33 19 3 18 -21 -1 -23 4 -26 67 -3 76 -22 92 -22 20z"/>
<path d="M1201 418 c-1 -15 -17 -23 -43 -20 -3 1 -9 -5 -12 -14 -4 -9 -2 -12
5 -8 6 4 15 1 19 -6 12 -20 42 15 37 42 -3 15 -5 17 -6 6z"/>
<path d="M1010 395 c0 -13 -26 -21 -53 -16 -5 1 -6 -3 -3 -8 4 -5 20 -9 36 -9
25 1 30 5 30 25 0 12 -2 23 -5 23 -3 0 -5 -7 -5 -15z"/>
<path d="M2080 369 c43 -7 43 -7 -16 -6 l-60 2 6 -35 c4 -19 7 -39 8 -45 1 -5
24 -12 51 -15 l49 -5 -1 35 c0 19 3 45 8 58 7 21 5 22 -41 20 l-49 -1 45 -8z
m-3 -34 c3 -9 3 -18 1 -21 -9 -9 -38 8 -38 22 0 19 29 18 37 -1z"/>
<path d="M1970 332 c0 -31 -4 -42 -16 -42 -8 0 -12 5 -9 10 3 6 -4 10 -17 10
-19 0 -20 -2 -8 -10 11 -8 -1 -10 -42 -8 -31 2 -54 6 -52 10 6 10 -30 10 -40
1 -11 -11 -137 -13 -158 -2 -12 6 -18 6 -18 -1 0 -5 -11 -10 -24 -10 -18 0
-26 7 -29 23 l-4 22 -2 -22 c-1 -21 -5 -22 -58 -20 -32 2 -71 0 -88 -4 l-30
-7 32 -1 c17 -1 34 -5 37 -10 4 -5 22 -5 43 0 52 12 443 12 443 0 0 -6 -15
-11 -32 -13 -31 -3 -33 -5 -30 -36 l3 -33 -130 2 -131 1 0 39 c0 36 -8 48 -22
33 -3 -3 -2 -21 2 -40 9 -41 -1 -45 -18 -6 l-12 27 5 -27 c5 -26 4 -26 -58
-30 -34 -2 -64 -3 -66 -1 -2 1 -6 17 -10 35 -5 25 -12 34 -31 36 -14 2 -20 -1
-15 -5 6 -4 16 -18 23 -30 11 -21 10 -23 -8 -23 -14 0 -20 -7 -20 -21 0 -20 3
-20 53 -13 28 5 185 7 347 6 l295 -2 12 37 c14 47 7 58 -9 15 -12 -31 -14 -32
-73 -32 l-60 0 -1 45 c-1 40 1 45 22 45 20 0 22 3 17 43 -8 56 -13 60 -13 9z"/>
<path d="M705 333 c-11 -3 -24 -9 -29 -13 -5 -5 -21 -6 -36 -3 -19 3 -29 0
-33 -11 -4 -9 -2 -16 3 -16 6 0 10 5 10 10 0 15 16 12 34 -5 13 -13 15 -13 20
3 4 10 13 19 21 20 8 1 22 3 30 4 8 1 12 5 9 10 -3 4 -6 7 -7 7 -1 -1 -11 -3
-22 -6z"/>
<path d="M2620 289 c0 -17 4 -28 10 -24 6 3 10 17 10 31 0 13 -4 24 -10 24 -5
0 -10 -14 -10 -31z"/>
<path d="M2225 300 c-4 -6 -11 -8 -16 -4 -6 3 -27 3 -46 -1 -57 -10 -19 -25
52 -20 39 3 49 2 30 -3 -28 -7 -26 -9 29 -20 58 -12 93 -9 43 3 -14 4 -28 13
-31 21 -3 8 -18 14 -33 15 l-28 1 25 8 c23 7 23 8 3 9 -12 1 -25 -4 -28 -9z"/>
<path d="M63 277 c-55 -9 -63 -13 -63 -32 0 -21 1 -21 78 -9 42 7 78 13 80 13
1 1 2 10 2 21 0 22 -2 22 -97 7z"/>
<path d="M800 273 c0 -6 -8 -13 -17 -15 -14 -3 -17 -15 -18 -76 0 -39 3 -72 8
-72 12 0 8 -38 -5 -42 -10 -4 -10 -10 -1 -31 10 -21 20 -27 45 -27 28 0 30 1
14 13 -10 8 -18 29 -20 55 l-3 42 46 -1 c38 -1 42 -2 21 -9 -31 -10 -5 -12 30
-3 23 7 23 8 -15 18 -39 12 -52 33 -57 95 -2 18 -28 69 -28 53z m5 -48 c0 -10
-6 -20 -12 -22 -8 -3 -13 5 -13 22 0 17 5 25 13 23 6 -3 12 -13 12 -23z m23
-68 c4 -31 -12 -36 -28 -8 -15 29 -12 43 8 39 10 -2 18 -14 20 -31z"/>
<path d="M2450 264 c0 -8 5 -12 10 -9 6 3 10 -1 10 -10 0 -9 -4 -14 -9 -10 -5
3 -12 1 -16 -5 -4 -7 -12 -7 -25 0 -25 14 -50 13 -27 -1 12 -7 16 -17 12 -32
-6 -20 -5 -21 8 -4 8 9 25 17 38 17 38 0 53 14 45 44 -7 29 -46 38 -46 10z"/>
<path d="M1022 265 c7 -7 309 -7 316 0 3 3 -68 5 -158 5 -90 0 -161 -2 -158
-5z"/>
<path d="M1349 200 l-4 -75 -149 -3 c-125 -2 -150 0 -160 13 -9 13 -19 14 -51
6 -35 -8 -36 -9 -11 -10 25 -1 28 -4 24 -26 -4 -17 -1 -25 8 -25 8 0 14 -4 14
-10 0 -5 -9 -10 -20 -10 -25 0 -101 -30 -118 -47 -11 -10 -7 -12 20 -7 114 21
166 50 138 78 -18 18 -11 24 28 20 20 -2 91 -5 157 -8 79 -3 130 -9 150 -19
40 -20 75 -23 163 -14 48 6 72 12 72 21 0 10 -10 11 -42 5 -62 -12 -133 -11
-176 3 l-37 11 3 67 c2 37 2 75 -1 86 -2 10 -6 -15 -8 -56z"/>
<path d="M370 196 c0 -64 0 -64 31 -71 45 -10 34 -38 -18 -47 -43 -7 -108 -36
-100 -44 2 -3 29 5 58 17 43 16 70 20 132 17 72 -3 91 2 67 17 -6 4 -8 10 -5
14 2 5 -4 16 -15 26 -18 16 -19 16 -23 -12 -4 -24 -4 -23 -3 4 2 29 -6 40 -61
89 l-63 55 0 -65z m70 -23 c21 -18 29 -93 10 -93 -5 0 -10 13 -10 29 0 16 -7
36 -15 45 -14 14 -20 36 -10 36 3 0 14 -8 25 -17z"/>
<path d="M2193 225 c-17 -19 -28 -24 -46 -20 -19 5 -31 0 -51 -22 -14 -15 -26
-36 -26 -45 0 -16 14 -18 157 -18 86 0 153 3 150 7 -4 3 -36 5 -72 4 -71 -3
-73 0 -51 54 l15 35 -31 0 c-23 0 -29 4 -24 15 7 20 5 19 -21 -10z m30 -52
c11 -7 8 -20 -5 -20 -7 0 -32 -3 -55 -7 -46 -8 -49 -6 -32 25 8 16 16 19 47
13 20 -4 40 -9 45 -11z"/>
<path d="M2617 244 c-9 -9 4 -137 14 -148 5 -6 9 19 9 60 0 48 -3 64 -10 54
-6 -9 -10 -10 -10 -3 0 6 5 15 10 18 6 3 10 10 10 16 0 10 -14 12 -23 3z"/>
<path d="M105 209 l-70 -18 61 4 c33 2 69 8 79 11 13 5 16 4 11 -4 -4 -7 -18
-12 -30 -12 -13 0 -34 -9 -47 -19 -24 -20 -23 -20 50 -1 77 20 98 31 87 49
-10 16 -60 12 -141 -10z"/>
<path d="M664 212 c-32 -30 -54 -34 -54 -10 0 32 -9 17 -12 -20 -1 -18 -3 -32
-4 -32 -1 0 -18 7 -39 16 -47 19 -58 9 -22 -22 18 -15 41 -24 63 -24 31 0 35
3 32 23 -3 19 2 22 40 25 23 2 42 7 42 13 0 5 -5 9 -11 9 -6 0 -8 9 -4 20 8
25 -5 26 -31 2z"/>
<path d="M727 183 c-11 -10 -8 -53 3 -53 6 0 10 14 10 30 0 31 -2 35 -13 23z"/>
<path d="M2422 173 c-36 -7 -20 -28 24 -30 30 -2 34 0 19 7 -18 8 -17 9 8 9
15 1 27 6 27 11 0 10 -34 11 -78 3z"/>
<path d="M210 156 c-72 -20 -79 -27 -22 -22 59 6 68 -6 20 -24 -61 -22 -14
-20 52 3 42 14 66 28 68 40 3 14 -3 17 -35 16 -21 0 -58 -6 -83 -13z"/>
<path d="M1544 146 c-3 -8 -15 -12 -27 -10 -13 2 -16 1 -7 -2 8 -4 22 -10 31
-15 13 -7 18 -3 21 16 5 26 -9 35 -18 11z"/>
<path d="M1958 153 c17 -2 47 -2 65 0 17 2 3 4 -33 4 -36 0 -50 -2 -32 -4z"/>
<path d="M1849 148 c-1 -5 -2 -14 -3 -20 -1 -10 -28 -12 -104 -10 -95 2 -102
1 -102 -17 0 -11 -8 -24 -17 -30 -21 -11 -11 -26 12 -18 8 4 15 15 15 25 0 17
9 19 100 19 96 1 136 -11 68 -20 -29 -3 -27 -4 10 -5 38 -2 42 0 41 21 0 23
-16 67 -20 55z"/>
<path d="M20 95 c17 -18 33 -25 59 -24 35 0 90 17 62 18 -11 1 -11 4 -1 16 11
13 3 15 -66 15 l-77 0 23 -25z"/>
<path d="M1990 106 c0 -8 -9 -16 -20 -19 -23 -6 -27 -42 -5 -51 8 -3 12 -12 9
-21 -3 -8 -1 -15 5 -15 6 0 11 15 12 33 0 17 3 39 7 47 8 16 8 16 84 19 68 1
59 7 -24 14 -53 5 -68 3 -68 -7z"/>
<path d="M2880 80 c0 -34 -3 -40 -21 -40 -13 0 -18 4 -13 12 5 7 3 8 -6 3 -6
-4 -34 -9 -61 -11 -40 -3 -47 -1 -43 11 5 11 2 13 -10 9 -21 -8 -21 -30 0 -38
30 -12 154 -7 159 7 11 32 14 87 5 87 -6 0 -10 -18 -10 -40z"/>
<path d="M282 93 c-24 -8 -41 -17 -38 -20 9 -9 93 7 112 22 18 14 18 14 -6 14
-14 0 -44 -7 -68 -16z"/>
<path d="M2682 76 c-2 -28 -2 -29 -22 -11 -19 18 -20 17 -20 -7 0 -24 35 -67
46 -56 3 3 3 28 1 54 -2 27 -4 36 -5 20z"/>
<path d="M2044 66 c-3 -13 -4 -35 -1 -47 3 -16 5 -12 6 14 l1 37 52 0 c62 0
60 5 -4 13 -44 6 -48 5 -54 -17z"/>
<path d="M1201 60 c-71 -3 -106 -9 -109 -18 -2 -6 2 -10 10 -8 7 2 54 7 105
10 l92 6 4 -28 4 -27 2 26 c1 21 5 26 24 23 204 -31 261 -35 325 -25 37 7 75
14 84 17 11 3 18 -2 21 -18 4 -19 5 -18 7 7 l2 30 8 -30 8 -30 1 29 c1 28 2
28 43 22 24 -4 52 -16 64 -26 31 -30 38 -24 14 10 -19 26 -28 30 -68 30 -26 0
-95 -7 -153 -17 -99 -15 -114 -15 -232 0 -69 10 -132 18 -139 20 -7 2 -60 0
-117 -3z"/>
<path d="M2510 50 c0 -24 25 -27 34 -4 9 23 8 24 -14 24 -13 0 -20 -7 -20 -20z"/>
<path d="M370 30 c-82 -28 -83 -29 -42 -29 24 -1 60 8 82 19 22 11 46 20 55
20 8 0 15 5 15 10 0 15 -17 12 -110 -20z"/>
<path d="M105 30 c20 -23 45 -27 45 -7 0 9 12 11 41 9 29 -3 40 -1 35 7 -4 6
-35 11 -73 11 -65 0 -66 0 -48 -20z"/>
<path d="M495 30 c-18 -20 -11 -25 19 -14 17 6 23 34 8 34 -5 0 -17 -9 -27
-20z"/>
</g>
</svg>
